<svg width="32" height="31" viewBox="0 0 32 31" fill="none" xmlns="http://www.w3.org/2000/svg">
<path d="M5.99342 0C2.8578 0 0.333008 2.52479 0.333008 5.6604V25.3396C0.333008 28.4752 2.8578 31 5.99342 31H16.6594V18.8809H13.4548V14.5177H16.6594V10.7899C16.6594 7.86121 18.5528 5.17215 22.9146 5.17215C24.6806 5.17215 25.9865 5.34169 25.9865 5.34169L25.8838 9.41626C25.8838 9.41626 24.5519 9.40368 23.0986 9.40368C21.5257 9.40368 21.2735 10.1284 21.2735 11.3315V14.5177H26.0088L25.8024 18.8809H21.2735V31H25.6726C28.8082 31 31.333 28.4752 31.333 25.3396V5.66043C31.333 2.52482 28.8082 3.09999e-05 25.6726 3.09999e-05H5.99339L5.99342 0Z" fill="#414042"/>
</svg>
