<svg width="21" height="29" viewBox="0 0 21 29" fill="none" xmlns="http://www.w3.org/2000/svg">
<path d="M12.5905 7.01625C11.9905 6.76616 11.3605 6.64612 10.7305 6.64612C10.4105 6.64612 10.0905 6.67613 9.78051 6.73615C8.83051 6.92622 7.97052 7.38639 7.28052 8.06664C6.60052 8.74689 6.13052 9.6172 5.95052 10.5675C5.76052 11.5179 5.86052 12.4883 6.23052 13.3886C6.60052 14.2789 7.22052 15.0392 8.03052 15.5794C8.83051 16.1196 9.77051 16.3997 10.7405 16.3997C12.0405 16.3997 13.2605 15.8895 14.1905 14.9692C15.1105 14.0488 15.6205 12.8284 15.6205 11.5179C15.6205 10.5475 15.3405 9.6172 14.8005 8.80691C14.2405 8.00662 13.4805 7.38639 12.5905 7.01625ZM13.2905 13.2385C12.9505 13.7487 12.4705 14.1389 11.9005 14.3789C11.5205 14.539 11.1205 14.609 10.7205 14.609C10.5205 14.609 10.3205 14.589 10.1105 14.549C9.5105 14.429 8.96051 14.1389 8.53051 13.7087C8.10052 13.2785 7.80051 12.7283 7.69051 12.1281C7.57051 11.5279 7.63051 10.9077 7.86051 10.3475C8.10051 9.77726 8.49051 9.29709 9.00051 8.95696C9.5205 8.60683 10.1105 8.42677 10.7205 8.42677C11.5305 8.42677 12.3305 8.75689 12.9005 9.3371C13.4805 9.91731 13.8005 10.6976 13.8105 11.5179C13.8105 12.1281 13.6305 12.7283 13.2905 13.2385Z" fill="#1B2006" fill-opacity="0.8"/>
<path d="M17.9305 3.84523C16.0105 1.79448 13.4505 0.674072 10.7305 0.674072C8.01054 0.674072 5.45054 1.80448 3.53054 3.84523C1.60053 5.89598 0.540527 8.62697 0.540527 11.518C0.540527 13.8589 1.27053 16.1697 2.60053 18.0304C2.71053 18.1805 2.82053 18.3305 2.92053 18.4806L10.4805 27.964C10.5405 28.0441 10.6305 28.0841 10.7305 28.0841C10.8305 28.0841 10.9205 28.0441 10.9805 27.964L18.5505 18.4706C18.5905 18.4205 18.8105 18.1104 18.8605 18.0404L18.8705 18.0304C20.2006 16.1697 20.9306 13.8589 20.9206 11.518C20.9106 8.61697 19.8505 5.88597 17.9305 3.84523ZM17.5405 16.94L17.5005 17C17.4305 17.0901 17.3106 17.2701 17.2806 17.3101L11.0505 25.133C10.9705 25.233 10.8605 25.2831 10.7305 25.2831C10.6005 25.2831 10.4905 25.223 10.4105 25.133L4.19053 17.3301C4.16053 17.2901 4.05053 17.1401 3.98053 17.04C3.95053 17 3.92054 16.96 3.92054 16.95L4.00053 16.89L3.91053 16.95C2.80053 15.3994 2.19053 13.4687 2.19053 11.518C2.19053 9.09715 3.08053 6.82632 4.68053 5.11569C6.29053 3.40507 8.44053 2.45472 10.7105 2.45472C12.9605 2.45472 15.1605 3.42508 16.7405 5.11569C18.3506 6.82632 19.2306 9.09715 19.2306 11.518C19.2505 13.4687 18.6505 15.3894 17.5405 16.94Z" fill="#1B2006" fill-opacity="0.8"/>
</svg>
