<svg width="32" height="31" viewBox="0 0 32 31" fill="none" xmlns="http://www.w3.org/2000/svg">
<path fill-rule="evenodd" clip-rule="evenodd" d="M4.93848 0H26.8564C29.3631 0 31.3975 2.03437 31.3975 4.54102V26.459C31.3975 28.9656 29.3631 31 26.8564 31H4.93848C2.43184 31 0.397461 28.9656 0.397461 26.459V4.54102C0.397461 2.03437 2.43184 0 4.93848 0ZM24.0713 5.57031C24.0713 6.56934 24.8887 7.38672 25.8877 7.38672C26.8867 7.38672 27.7041 6.56934 27.7041 5.57031C27.7041 4.57129 26.8867 3.75391 25.8877 3.75391C24.8887 3.75391 24.0713 4.57129 24.0713 5.57031ZM21.7526 15.4998C21.7526 18.7337 19.1309 21.3553 15.897 21.3553C12.6631 21.3553 10.0414 18.7337 10.0414 15.4998C10.0414 12.2658 12.6631 9.64423 15.897 9.64423C19.1309 9.64423 21.7526 12.2658 21.7526 15.4998ZM24.5081 15.4998C24.5081 20.2556 20.6528 24.1109 15.897 24.1109C11.1412 24.1109 7.28589 20.2556 7.28589 15.4998C7.28589 10.744 11.1412 6.88867 15.897 6.88867C20.6528 6.88867 24.5081 10.744 24.5081 15.4998Z" fill="#414042"/>
</svg>
