<svg width="29" height="29" viewBox="0 0 29 29" fill="none" xmlns="http://www.w3.org/2000/svg">
<path d="M28.2506 26.447L18.7305 16.927C20.2205 15.117 21.0306 12.847 21.0306 10.517C21.0306 4.93698 16.4905 0.406982 10.9205 0.406982C5.35055 0.406982 0.810547 4.94698 0.810547 10.517C0.810547 16.087 5.34055 20.627 10.9205 20.627C13.2705 20.627 15.5506 19.797 17.3606 18.297L26.8806 27.817C27.0606 27.997 27.3106 28.097 27.5606 28.097C27.8106 28.097 28.0606 27.997 28.2406 27.817C28.4206 27.637 28.5206 27.397 28.5206 27.137C28.5306 26.877 28.4306 26.627 28.2506 26.447ZM19.1106 10.517C19.1106 15.027 15.4405 18.697 10.9305 18.697C6.42054 18.697 2.75055 15.027 2.75055 10.517C2.75055 6.00698 6.42054 2.33698 10.9305 2.33698C15.4405 2.33698 19.1106 6.00698 19.1106 10.517Z" fill="#494949"/>
</svg>
