<svg width="28" height="20" viewBox="0 0 28 20" fill="none" xmlns="http://www.w3.org/2000/svg">
<path fill-rule="evenodd" clip-rule="evenodd" d="M2.36345 0.652588C1.84851 0.652588 1.35466 0.851559 0.990548 1.20573C0.626433 1.5599 0.421875 2.04026 0.421875 2.54113L0.421875 17.6495C0.421875 18.692 1.2917 19.538 2.36345 19.538H25.1076C25.6225 19.538 26.1163 19.3391 26.4805 18.9849C26.8446 18.6307 27.0491 18.1504 27.0491 17.6495V2.54113C27.0491 2.04026 26.8446 1.5599 26.4805 1.20573C26.1163 0.851559 25.6225 0.652588 25.1076 0.652588H2.36345ZM2.08608 2.54113C2.08608 2.46958 2.1153 2.40096 2.16732 2.35036C2.21933 2.29977 2.28988 2.27134 2.36345 2.27134H25.1076C25.1811 2.27134 25.2517 2.29977 25.3037 2.35036C25.3557 2.40096 25.3849 2.46958 25.3849 2.54113V3.46059L13.8908 11.0148C13.845 11.0449 13.7909 11.061 13.7355 11.061C13.6801 11.061 13.626 11.0449 13.5802 11.0148L2.08608 3.46059V2.54113V2.54113ZM2.08608 5.41388V17.6495C2.08608 17.7984 2.21034 17.9193 2.36345 17.9193H25.1076C25.1811 17.9193 25.2517 17.8909 25.3037 17.8403C25.3557 17.7897 25.3849 17.721 25.3849 17.6495V5.41388L14.8228 12.3562C14.166 12.7878 13.305 12.7878 12.6482 12.3562L2.08608 5.41388Z" fill="#1B2006" fill-opacity="0.8"/>
</svg>
