<svg width="31" height="31" viewBox="0 0 31 31" fill="none" xmlns="http://www.w3.org/2000/svg">
<path d="M30.2476 21.7768C30.0176 21.3621 29.6476 21.0347 29.2276 20.8491L22.1376 17.7821C21.8076 17.6402 21.4376 17.5857 21.0876 17.6184C20.7276 17.6512 20.3776 17.7712 20.0876 17.9786L16.2976 20.5326C16.2676 20.5544 16.2276 20.5762 16.1776 20.5762C16.1376 20.5762 16.0976 20.5762 16.0576 20.5544C13.6876 19.3975 11.7476 17.4329 10.5976 15.0426C10.5776 15.0098 10.5776 14.9662 10.5776 14.9225C10.5776 14.8789 10.5976 14.8461 10.6176 14.8134L13.1376 10.9169C13.3376 10.6113 13.4576 10.262 13.4876 9.90185C13.5176 9.54167 13.4576 9.17058 13.3176 8.84315L10.2776 1.6614C10.0976 1.22482 9.76764 0.853726 9.36765 0.624521C8.96765 0.395316 8.48764 0.297086 8.02764 0.351658C6.04764 0.613607 4.22765 1.585 2.89766 3.11303C1.57766 4.63015 0.847656 6.59476 0.847656 8.61394C0.847656 20.6417 10.5076 30.4211 22.3776 30.4211C24.3776 30.4211 26.3076 29.6789 27.8076 28.3474C29.3076 27.0049 30.2776 25.1603 30.5376 23.1521C30.5776 22.6718 30.4876 22.1916 30.2476 21.7768ZM26.5376 26.8739C25.3876 27.8999 23.9076 28.4674 22.3676 28.4674C17.1276 28.4565 12.2076 26.3937 8.49764 22.6391C4.79764 18.8845 2.74765 13.9075 2.74765 8.60303C2.74765 7.05317 3.30765 5.55788 4.31765 4.39003C5.32765 3.22217 6.72764 2.46907 8.24764 2.27261C8.25764 2.27261 8.26764 2.27261 8.27764 2.27261C8.32764 2.27261 8.37764 2.28353 8.41764 2.31627C8.45763 2.34901 8.48765 2.38176 8.50765 2.42541L11.5476 9.60716C11.5676 9.65082 11.5676 9.68356 11.5676 9.72722C11.5676 9.77088 11.5476 9.80362 11.5276 9.83637L9.00765 13.7328C8.79765 14.0494 8.67764 14.4205 8.65764 14.7916C8.62764 15.1736 8.70765 15.5447 8.86765 15.8939C10.2176 18.6771 12.4676 20.9473 15.2176 22.3007C15.5576 22.4645 15.9276 22.5299 16.2976 22.5081C16.6676 22.4754 17.0376 22.3553 17.3376 22.1479L21.1276 19.5939C21.1676 19.5721 21.2076 19.5503 21.2476 19.5503C21.2876 19.5503 21.3376 19.5503 21.3776 19.5721L28.4676 22.65C28.5176 22.6718 28.5576 22.7046 28.5876 22.7482C28.6176 22.7919 28.6276 22.8465 28.6176 22.901C28.4276 24.44 27.6876 25.8479 26.5376 26.8739Z" fill="#1B2006" fill-opacity="0.8"/>
</svg>
