<svg width="54" height="31" viewBox="0 0 54 31" fill="none" xmlns="http://www.w3.org/2000/svg">
<path d="M52.1174 29.9763C50.2811 31.1267 42.8107 31.469 41.0027 30.1551C40.0108 29.435 39.1039 28.5331 38.242 27.6756C37.6403 27.0754 36.9558 26.784 36.4384 26.1329C36.0169 25.5995 35.727 24.9709 35.2815 24.4462C34.5308 23.5633 33.374 22.8126 32.4583 23.891C31.0813 25.5123 32.6756 28.6995 30.8385 29.9117C30.2223 30.3186 29.601 30.4363 28.8314 30.3782L27.1266 30.456C26.1245 30.4756 24.5381 30.4843 23.3994 30.2786C22.1277 30.0497 21.0791 29.355 19.9309 28.8449C17.7494 27.8777 15.6704 26.5594 14.0891 24.7333C9.78563 19.7605 4.00482 12.9209 1.75935 6.66852C1.29645 5.38373 0.0777971 2.84105 1.23396 1.73866C2.80651 0.596305 10.5276 0.272928 11.731 2.04096C12.2208 2.7582 12.5289 3.81118 12.8748 4.62434C13.305 5.6388 13.539 6.59585 14.2119 7.49404C14.8078 8.29121 15.2482 9.09202 15.7096 9.96623C16.2277 10.9465 16.7161 11.8869 17.3461 12.7901C17.7734 13.4042 18.9034 14.6243 19.617 14.7159C21.3596 14.939 21.2506 10.7038 21.1213 9.66902C20.9977 8.67273 20.965 7.61612 20.9977 6.60529C21.0261 5.74344 21.1038 4.52914 20.5929 3.82498C19.7609 2.67681 17.9078 3.53649 17.7625 1.99373C18.0692 1.55553 18.0038 1.16676 20.0487 0.493842C21.6583 -0.0359141 22.6982 -0.0192008 23.7599 0.0658218C25.9254 0.2395 28.221 -0.346937 30.3102 0.355044C32.3057 1.02723 31.9976 3.8635 31.9307 5.56395C31.8414 7.88572 31.9366 10.1508 31.9307 12.506C31.9278 13.5793 31.8857 14.6221 33.1923 14.5357C34.4189 14.4535 34.5432 13.4224 35.1282 12.5707C35.9428 11.384 36.6891 10.1813 37.5183 8.99828C38.6352 7.40029 38.9716 5.60465 40.0232 3.96742C40.3996 3.38098 40.723 2.10128 41.3021 1.63838C41.7411 1.28884 42.5738 1.43854 43.1043 1.43854H44.3658C45.3323 1.45016 46.3177 1.46397 47.3097 1.49885C48.7391 1.54827 50.34 1.23797 51.7577 1.43781C57.8735 2.30112 44.0708 15.3837 44.7888 17.7178C45.2858 19.3296 48.4339 21.1354 49.5704 22.4566C51.0855 24.2137 55.7298 27.7156 52.1174 29.9763Z" fill="#414042"/>
</svg>
